<svg id="Camada_1" data-name="Camada 1" xmlns="http://www.w3.org/2000/svg" xmlns:xlink="http://www.w3.org/1999/xlink" viewBox="0 0 8 8"><defs><style>.cls-1{fill:#ed9a1f;}.cls-2{fill:#e68d28;}.cls-3{fill:url(#Gradiente_sem_nome_32);}.cls-4{fill:#915c06;}</style><linearGradient id="Gradiente_sem_nome_32" x1="1.8115" y1="5.6231" x2="6.3731" y2="1.0615" gradientTransform="matrix(1, 0, 0, -1, 0, 8)" gradientUnits="userSpaceOnUse"><stop offset="0" stop-color="#ffd899"/><stop offset="1" stop-color="#ffaf38"/></linearGradient></defs><path class="cls-1" d="M6.2941,2H4l-.7618-.7618A.8134.8134,0,0,0,2.6631,1H1.3765A.3765.3765,0,0,0,1,1.3765V3.918A.082.082,0,0,0,1.082,4H6.918A.082.082,0,0,0,7,3.918V2.7059A.7058.7058,0,0,0,6.2943,2Z"/><path class="cls-2" d="M1,6H7v.68A.32.32,0,0,1,6.68,7H1.32A.32.32,0,0,1,1,6.68H1V6Z"/><path class="cls-3" d="M6.455,2.5H4.7038a.864.864,0,0,0-.3861.0911l-.7126.3564A.4983.4983,0,0,1,3.3825,3H1.3215A.3217.3217,0,0,0,1,3.3215V6.1784A.3216.3216,0,0,0,1.3216,6.5H6.6785A.3217.3217,0,0,0,7,6.1785V3.045A.545.545,0,0,0,6.455,2.5Z"/><path class="cls-4" d="M4,3.5a1,1,0,1,1-.5715,1.8207.125.125,0,0,1,.143-.2051A.75.75,0,1,0,3.47,3.97l.12.12a.0939.0939,0,0,1-.066.16h-.43A.0937.0937,0,0,1,3,4.1562v-.43A.0937.0937,0,0,1,3.16,3.66l.1329.1329A.9953.9953,0,0,1,3.9965,3.5ZM4,4a.0936.0936,0,0,1,.0938.0938v.3675l.25.2535a.0914.0914,0,1,1-.1293.1293l-.2812-.2812A.08.08,0,0,1,3.9062,4.5V4.0938A.0936.0936,0,0,1,4,4Z"/></svg>