<svg id="Camada_1" data-name="Camada 1" xmlns="http://www.w3.org/2000/svg" xmlns:xlink="http://www.w3.org/1999/xlink" viewBox="0 0 8 8"><defs><style>.cls-1{fill:url(#Gradiente_sem_nome_8);}.cls-2{fill:url(#Gradiente_sem_nome_2);}.cls-3{fill:url(#Gradiente_sem_nome_3);}.cls-4{fill:url(#Gradiente_sem_nome_4);}</style><linearGradient id="Gradiente_sem_nome_8" x1="1.2511" y1="1.2511" x2="6.7489" y2="6.7489" gradientUnits="userSpaceOnUse"><stop offset="0" stop-color="#f7904e"/><stop offset="1" stop-color="#8f62bc"/></linearGradient><linearGradient id="Gradiente_sem_nome_2" x1="2.1522" y1="2.1522" x2="5.8478" y2="5.8478" gradientUnits="userSpaceOnUse"><stop offset="0" stop-color="#232223"/><stop offset="1" stop-color="#49484d"/></linearGradient><linearGradient id="Gradiente_sem_nome_3" x1="-77.9317" y1="51.3845" x2="-78.7719" y2="52.2957" gradientTransform="matrix(1.4087, 0, 0, -1.4087, 114.3799, 77.0329)" gradientUnits="userSpaceOnUse"><stop offset="0" stop-color="#d2d2d2"/><stop offset="1" stop-color="#fff"/></linearGradient><linearGradient id="Gradiente_sem_nome_4" x1="-112.4548" y1="85.919" x2="-113.0041" y2="86.5147" gradientTransform="matrix(0.5389, 0, 0, -0.5389, 64.7516, 50.4643)" xlink:href="#Gradiente_sem_nome_2"/></defs><rect class="cls-1" x="1" y="1" width="6" height="6" rx="0.8571"/><rect class="cls-2" x="1.4286" y="1.4286" width="5.1429" height="5.1429" rx="2.4705"/><path class="cls-3" d="M5,4a.9824.9824,0,0,1-.1634.55.69.69,0,0,1-.0588.0783.9965.9965,0,0,1-1.3229.2089A.9714.9714,0,0,1,3.22,4.6251a.7616.7616,0,0,1-.0571-.08A.9994.9994,0,1,1,5,4Z"/><path class="cls-4" d="M4.25,4a.2489.2489,0,0,1-.0417.1381l-.0143.0195a.2445.2445,0,0,1-.0573.0521.2533.2533,0,0,1-.2736,0,.2843.2843,0,0,1-.0587-.0534L3.79,4.137A.25.25,0,1,1,4.25,4Z"/></svg>