<svg id="Camada_1" data-name="Camada 1" xmlns="http://www.w3.org/2000/svg" xmlns:xlink="http://www.w3.org/1999/xlink" viewBox="0 0 8 8"><defs><style>.cls-1{fill:none;}.cls-2{clip-path:url(#clip-path);}.cls-3{fill:url(#Gradiente_sem_nome_2);}.cls-4{fill:#fff;}</style><clipPath id="clip-path"><path class="cls-1" d="M1.7632,1H6.2368A.7632.7632,0,0,1,7,1.7632V5.48A1.52,1.52,0,0,1,5.48,7H2.52A1.52,1.52,0,0,1,1,5.48V1.7632A.7632.7632,0,0,1,1.7632,1Z"/></clipPath><linearGradient id="Gradiente_sem_nome_2" x1="0.7" y1="0.1" x2="7.3" y2="6.7" gradientUnits="userSpaceOnUse"><stop offset="0" stop-color="#0b8be0"/><stop offset="1" stop-color="#1b3b75"/></linearGradient></defs><g class="cls-2"><rect class="cls-3" x="1" y="-0.2" width="6" height="7.2"/></g><ellipse class="cls-1" cx="4" cy="2.25" rx="2" ry="1.75"/><path class="cls-4" d="M4,3.5182A1.578,1.578,0,0,1,2.3086,2.091a.25.25,0,1,1,.5,0A1.086,1.086,0,0,0,4,3.0182,1.086,1.086,0,0,0,5.1914,2.091a.25.25,0,1,1,.5,0A1.578,1.578,0,0,1,4,3.5182Z"/></svg>