<svg id="Camada_1" data-name="Camada 1" xmlns="http://www.w3.org/2000/svg" xmlns:xlink="http://www.w3.org/1999/xlink" viewBox="0 0 32 32"><defs><style>.cls-1{fill:url(#Gradiente_sem_nome_233);}.cls-2{fill:url(#Gradiente_sem_nome_232);}</style><linearGradient id="Gradiente_sem_nome_233" x1="9.0705" y1="9.0705" x2="22.9295" y2="22.9295" gradientUnits="userSpaceOnUse"><stop offset="0" stop-color="#34fafa"/><stop offset="1" stop-color="#a153cf"/></linearGradient><linearGradient id="Gradiente_sem_nome_232" x1="9.8262" y1="9.8233" x2="22.1767" y2="22.1738" gradientUnits="userSpaceOnUse"><stop offset="0" stop-color="#2d52a8" stop-opacity="0.9961"/><stop offset="1" stop-color="#463675" stop-opacity="0.9961"/></linearGradient></defs><circle class="cls-1" cx="16" cy="16" r="9.7998"/><path class="cls-2" d="M23.3307,7.6a28.2426,28.2426,0,0,0-9.7068,2.0534,28.3241,28.3241,0,0,0-8.5995,5.0011c-3.433,3.096-3.22,5.4943-2.7862,6.65S4.0805,24.4,8.6693,24.4a19.35,19.35,0,0,0,2.0863-.12,9.84,9.84,0,0,1-3.7679-4.4268.6913.6913,0,0,1-.3117-.2571c-.0834-.2153.2179-1.1212,1.6351-2.398A22.4579,22.4579,0,0,1,15.002,13.334a22.258,22.258,0,0,1,7.533-1.6214c1.8946,0,2.7057.4764,2.789.6918a.6793.6793,0,0,1-.06.3937,9.8248,9.8248,0,0,1,.1941,5.7694c.5441-.3995,1.0565-.8069,1.5176-1.2222,3.433-3.096,3.22-5.4943,2.7862-6.65C29.3369,9.54,27.928,7.6,23.3307,7.6Z"/></svg>