<svg xmlns="http://www.w3.org/2000/svg" xmlns:xlink="http://www.w3.org/1999/xlink" viewBox="0 0 8 8"><defs><style>.cls-1{fill:url(#Gradiente_sem_nome_6);}.cls-2{fill:#fff;}</style><linearGradient id="Gradiente_sem_nome_6" x1="1.4648" y1="1.4649" x2="6.5355" y2="6.5356" gradientUnits="userSpaceOnUse"><stop offset="0" stop-color="#1caeff"/><stop offset="1" stop-color="#0065b0"/></linearGradient></defs><g id="Camada_2" data-name="Camada 2"><path class="cls-1" d="M6.6762,4.3572a2.6812,2.6812,0,0,0,0-.7144l.6089-.5541a.3192.3192,0,0,0,.0886-.3459,3.5673,3.5673,0,0,0-.2208-.4823l-.0661-.1139a3.6275,3.6275,0,0,0-.3108-.4395.32.32,0,0,0-.3445-.0957l-.7833.25A3.006,3.006,0,0,0,5.03,1.5029L4.8537.7a.319.319,0,0,0-.2559-.25,3.64,3.64,0,0,0-1.1953,0,.3192.3192,0,0,0-.256.25l-.1758.803a2.706,2.706,0,0,0-.6187.3582l-.7827-.25a.3194.3194,0,0,0-.3447.0957,3.6409,3.6409,0,0,0-.3111.4395l-.0656.1139a3.5246,3.5246,0,0,0-.222.4823.3189.3189,0,0,0,.0894.3459l.6083.5541a2.7265,2.7265,0,0,0,0,.7144l-.6083.5541a.32.32,0,0,0-.0894.3459,3.5008,3.5008,0,0,0,.222.4823l.0658.1139a3.68,3.68,0,0,0,.3109.44.3212.3212,0,0,0,.3447.0956l.7827-.25a2.7637,2.7637,0,0,0,.6187.3586l.1758.803a.3373.3373,0,0,0,.256.25A3.6,3.6,0,0,0,3.9874,7.6a3.68,3.68,0,0,0,.61-.0492.3372.3372,0,0,0,.2559-.25l.1758-.803a3.0777,3.0777,0,0,0,.6187-.3586l.7833.25a.3216.3216,0,0,0,.3445-.0956,3.691,3.691,0,0,0,.3108-.44L7.1529,5.74a3.5673,3.5673,0,0,0,.2208-.4823.3192.3192,0,0,0-.0886-.3459Z"/></g><g id="Camada_1" data-name="Camada 1"><circle class="cls-2" cx="4" cy="4" r="1.1667"/></g></svg>