<svg id="Camada_1" data-name="Camada 1" xmlns="http://www.w3.org/2000/svg" xmlns:xlink="http://www.w3.org/1999/xlink" viewBox="0 0 8 8"><defs><style>.cls-1{fill:url(#Gradiente_sem_nome_3);}.cls-2{fill:url(#Gradiente_sem_nome_3-2);}.cls-3{clip-path:url(#clip-path);}.cls-4{clip-path:url(#clip-path-2);}.cls-5{fill:url(#Gradiente_sem_nome_3-5);}.cls-6{fill:#fff;}</style><linearGradient id="Gradiente_sem_nome_3" x1="1.3162" y1="1.3162" x2="6.6838" y2="6.6838" gradientUnits="userSpaceOnUse"><stop offset="0" stop-color="#1caeff"/><stop offset="1" stop-color="#0065b0"/></linearGradient><linearGradient id="Gradiente_sem_nome_3-2" x1="1" y1="1" x2="7" y2="7" xlink:href="#Gradiente_sem_nome_3"/><clipPath id="clip-path"><rect class="cls-1" x="1" y="1" width="6" height="6" rx="1.0797"/></clipPath><clipPath id="clip-path-2"><rect class="cls-2" x="1" y="1" width="6" height="6"/></clipPath><linearGradient id="Gradiente_sem_nome_3-5" x1="1" y1="7" x2="7" y2="1" gradientTransform="matrix(1, 0, 0, -1, 0, 8)" xlink:href="#Gradiente_sem_nome_3"/></defs><rect class="cls-1" x="1" y="1" width="6" height="6" rx="1.0797"/><g class="cls-3"><rect class="cls-2" x="1" y="1" width="6" height="6"/><g class="cls-4"><rect class="cls-5" x="1" y="1" width="6" height="6"/></g></g><path class="cls-6" d="M5.8585,4.248a1.8608,1.8608,0,0,0,0-.496l.4228-.3848a.2215.2215,0,0,0,.0615-.24A2.4628,2.4628,0,0,0,6.19,2.792l-.0459-.0791a2.5251,2.5251,0,0,0-.2158-.3052.2224.2224,0,0,0-.2393-.0665l-.5439.1734a2.0868,2.0868,0,0,0-.43-.2487l-.1221-.5576a.2214.2214,0,0,0-.1777-.174,2.5283,2.5283,0,0,0-.83,0,.2214.2214,0,0,0-.1777.174l-.1221.5576a1.8791,1.8791,0,0,0-.43.2487L2.312,2.3412a.2219.2219,0,0,0-.2394.0665,2.5378,2.5378,0,0,0-.216.3052L1.811,2.792a2.4307,2.4307,0,0,0-.1541.335.2215.2215,0,0,0,.062.24l.4225.3848a1.8948,1.8948,0,0,0,0,.496l-.4225.3848a.2219.2219,0,0,0-.062.24,2.4189,2.4189,0,0,0,.1541.335l.0457.0791a2.5715,2.5715,0,0,0,.2159.3057.2231.2231,0,0,0,.2394.0664l.5435-.1738a1.9253,1.9253,0,0,0,.43.249l.1221.5576a.234.234,0,0,0,.1777.1738A2.4943,2.4943,0,0,0,3.9913,6.5a2.5475,2.5475,0,0,0,.4238-.0342.234.234,0,0,0,.1777-.1738l.1221-.5576a2.1443,2.1443,0,0,0,.43-.249l.5439.1738a.2236.2236,0,0,0,.2393-.0664,2.5707,2.5707,0,0,0,.2158-.3057L6.19,5.208a2.4628,2.4628,0,0,0,.1533-.335.2215.2215,0,0,0-.0615-.24ZM4,5.2153A1.2461,1.2461,0,0,1,2.7847,4,1.2461,1.2461,0,0,1,4,2.7847,1.2461,1.2461,0,0,1,5.2153,4,1.2461,1.2461,0,0,1,4,5.2153Z"/><circle class="cls-6" cx="4" cy="4" r="0.8102"/></svg>