<svg id="Camada_1" data-name="Camada 1" xmlns="http://www.w3.org/2000/svg" xmlns:xlink="http://www.w3.org/1999/xlink" viewBox="0 0 8 8"><defs><style>.cls-1{fill:url(#Gradiente_sem_nome_8);}.cls-2{fill:url(#Gradiente_sem_nome_2);}.cls-3{fill:url(#Gradiente_sem_nome_3);}.cls-4{fill:url(#Gradiente_sem_nome_4);}</style><linearGradient id="Gradiente_sem_nome_8" x1="0.3347" y1="0.3347" x2="7.6653" y2="7.6653" gradientUnits="userSpaceOnUse"><stop offset="0" stop-color="#f7904e"/><stop offset="1" stop-color="#8f62bc"/></linearGradient><linearGradient id="Gradiente_sem_nome_2" x1="1.5756" y1="1.5756" x2="6.4244" y2="6.4244" gradientUnits="userSpaceOnUse"><stop offset="0" stop-color="#232223"/><stop offset="1" stop-color="#49484d"/></linearGradient><linearGradient id="Gradiente_sem_nome_3" x1="-77.7903" y1="51.2313" x2="-78.9106" y2="52.4463" gradientTransform="matrix(1.4087, 0, 0, -1.4087, 114.3799, 77.0329)" gradientUnits="userSpaceOnUse"><stop offset="0" stop-color="#d2d2d2"/><stop offset="1" stop-color="#fff"/></linearGradient><linearGradient id="Gradiente_sem_nome_4" x1="-112.3622" y1="85.8185" x2="-113.0946" y2="86.6128" gradientTransform="matrix(0.5389, 0, 0, -0.5389, 64.7516, 50.4643)" xlink:href="#Gradiente_sem_nome_2"/></defs><rect class="cls-1" width="8" height="8" rx="1.1429"/><rect class="cls-2" x="0.5714" y="0.5714" width="6.8571" height="6.8571" rx="3.4286"/><path class="cls-3" d="M5.3333,4a1.31,1.31,0,0,1-.2178.7333.9337.9337,0,0,1-.0784.1045,1.3289,1.3289,0,0,1-1.7639.2785A1.2933,1.2933,0,0,1,2.96,4.8334a1.0179,1.0179,0,0,1-.0763-.1066A1.3326,1.3326,0,1,1,5.3333,4Z"/><path class="cls-4" d="M4.3333,4a.332.332,0,0,1-.0556.1841.24.24,0,0,1-.0191.0261.3261.3261,0,0,1-.0764.0694.3382.3382,0,0,1-.3648,0,.3783.3783,0,0,1-.0781-.0712L3.72,4.1827A.3339.3339,0,1,1,4.3333,4Z"/></svg>