<svg id="Camada_1" data-name="Camada 1" xmlns="http://www.w3.org/2000/svg" xmlns:xlink="http://www.w3.org/1999/xlink" viewBox="0 0 8 8"><defs><style>.cls-1{fill:none;}.cls-2{fill:url(#Gradiente_sem_nome_6);}.cls-3{fill:#1a211f;}.cls-4{clip-path:url(#clip-path);}.cls-5{fill:#65fd9a;}</style><linearGradient id="Gradiente_sem_nome_6" x1="1.4666" y1="1.9666" x2="6.5334" y2="7.0334" gradientUnits="userSpaceOnUse"><stop offset="0" stop-color="#fff"/><stop offset="1" stop-color="#c3ccd0"/></linearGradient><clipPath id="clip-path"><rect class="cls-1" x="1.3" y="3" width="5.4" height="3"/></clipPath></defs><rect class="cls-2" x="1" y="2" width="6" height="5" rx="0.7396"/><rect class="cls-3" x="1.3" y="2.25" width="5.4" height="4.5" rx="0.5063"/><g class="cls-4"><path class="cls-5" d="M4.4941,5.5029a.189.189,0,0,1-.0332-.0039.15.15,0,0,1-.1049-.0879L3.7832,4.0688l-.5576.8472A.1509.1509,0,0,1,3.1,4.9834H1.3a.15.15,0,0,1,0-.3H3.019L3.686,3.67a.1488.1488,0,0,1,.1387-.0669.1507.1507,0,0,1,.125.09l.6011,1.4087.4321-.3813a.1485.1485,0,0,1,.0991-.0376H6.7a.15.15,0,1,1,0,.3H5.1387l-.5454.4814A.15.15,0,0,1,4.4941,5.5029Z"/></g></svg>