<svg id="Camada_1" data-name="Camada 1" xmlns="http://www.w3.org/2000/svg" xmlns:xlink="http://www.w3.org/1999/xlink" viewBox="0 0 8 8"><defs><style>.cls-1{fill:url(#Gradiente_sem_nome);}.cls-2{fill:url(#Gradiente_sem_nome_2);}.cls-3{fill:url(#Gradiente_sem_nome_3);}.cls-4{fill:#fff;}</style><linearGradient id="Gradiente_sem_nome" x1="1" y1="7.5" x2="7" y2="7.5" gradientTransform="matrix(1, 0, 0, -1, 0, 10)" gradientUnits="userSpaceOnUse"><stop offset="0" stop-color="#6a8ea1"/><stop offset="1" stop-color="#376078"/></linearGradient><linearGradient id="Gradiente_sem_nome_2" x1="1" y1="3.5" x2="7" y2="3.5" gradientTransform="matrix(1, 0, 0, -1, 0, 10)" gradientUnits="userSpaceOnUse"><stop offset="0" stop-color="#486d87"/><stop offset="1" stop-color="#243242"/></linearGradient><linearGradient id="Gradiente_sem_nome_3" x1="1.8115" y1="26.3769" x2="6.3731" y2="30.9385" gradientTransform="translate(0 -24)" gradientUnits="userSpaceOnUse"><stop offset="0" stop-color="#bfcddb"/><stop offset="1" stop-color="#587ea3"/></linearGradient></defs><path class="cls-1" d="M6.2941,2H4l-.7618-.7618A.8134.8134,0,0,0,2.6631,1H1.3765A.3765.3765,0,0,0,1,1.3765V3.918A.082.082,0,0,0,1.082,4H6.918A.082.082,0,0,0,7,3.918V2.7059A.7058.7058,0,0,0,6.2943,2Z"/><path class="cls-2" d="M1,6H7v.68A.32.32,0,0,1,6.68,7H1.32A.32.32,0,0,1,1,6.68H1Z"/><path class="cls-3" d="M6.455,2.5H4.7038a.864.864,0,0,0-.3861.0911l-.7126.3564A.4983.4983,0,0,1,3.3825,3H1.3215A.3217.3217,0,0,0,1,3.3215V6.1784A.3216.3216,0,0,0,1.3216,6.5H6.6785A.3217.3217,0,0,0,7,6.1785V3.045A.545.545,0,0,0,6.455,2.5Z"/><path class="cls-4" d="M4.4371,3.5H3.2287A.2287.2287,0,0,0,3,3.7287V5.7713A.2287.2287,0,0,0,3.2287,6H4.7713A.2287.2287,0,0,0,5,5.7713V4.0629a.1518.1518,0,0,0-.0445-.1074l-.411-.411A.1518.1518,0,0,0,4.4371,3.5Z"/></svg>