<svg xmlns="http://www.w3.org/2000/svg" viewBox="0 0 32 32"><defs><style>.cls-1{fill:#4d4d4d;}.cls-1,.cls-2{opacity:0.8;}.cls-2{fill:#ccc;}.cls-3{fill:#a8adaf;}.cls-3,.cls-4,.cls-5{opacity:0.65;}.cls-4{fill:#c7cccf;}.cls-5{fill:#f5fbff;}.cls-6{fill:#0075db;}</style></defs><g id="Camada_2" data-name="Camada 2"><polygon class="cls-1" points="23 26 9 26 7 28 25 28 23 26"/><rect class="cls-2" x="7" y="28" width="18" height="2"/><polygon class="cls-3" points="23 26 9 26 7 2 25 2 23 26"/><polygon class="cls-4" points="25 28 23 26 25 2 28 5 25 28"/><polygon class="cls-4" points="7 28 9 26 7 2 4 5 7 28"/><polygon class="cls-5" points="25 28 7 28 4 5 28 5 25 28"/></g><g id="Camada_5" data-name="Camada 5"><path class="cls-6" d="M10.5707,20.4068a2.5136,2.5136,0,0,0-.3008,1.0384,1.7654,1.7654,0,0,0,.0164.2672l-2.0932-3.6a.9339.9339,0,0,1-.1169-.4353,1.0026,1.0026,0,0,1,.1169-.452L9.198,15.4671l-1.1218-.6357,3.65-.0676,1.7746,3.1978-1.1381-.6529ZM12.1785,10.26a1.6351,1.6351,0,0,1,1.4731-.8545,1.7781,1.7781,0,0,1,1.6078.9707l.57.9543-1.9763,3.4166-3.1979-1.8588Zm.2338,13.0429a1.7507,1.7507,0,0,1-1.7412-1.7412,2.3461,2.3461,0,0,1,.2851-1.0048l.5352-.9543H15.46v3.7H12.4123Zm3.1821-13.1441a2.0524,2.0524,0,0,0-.9878-.9045h4.1187a.8977.8977,0,0,1,.821.4361l1.0213,1.7412,1.1047-.6535L19.8969,13.96l-3.6326-.0511,1.1218-.6358Zm6.3466,9.4773a2.03,2.03,0,0,0,1.2722-.4013l-2.0768,3.6162a.9276.9276,0,0,1-.82.4519h-1.96v1.2893l-1.8751-3.1309L18.3568,18.33v1.3064Zm1.6064-3.014a1.72,1.72,0,0,1,.2352.8539,1.8619,1.8619,0,0,1-.9208,1.54,2.1046,2.1046,0,0,1-.9543.2188H20.8014l-1.975-3.4166,3.198-1.8252Z"/></g></svg>