<svg id="Camada_1" data-name="Camada 1" xmlns="http://www.w3.org/2000/svg" xmlns:xlink="http://www.w3.org/1999/xlink" viewBox="0 0 8 8"><defs><style>.cls-1{fill:#edb51f;}.cls-2{fill:#e6a928;}.cls-3{fill:url(#Gradiente_sem_nome_3);}.cls-4{fill:url(#Gradiente_sem_nome_13);}</style><linearGradient id="Gradiente_sem_nome_3" x1="1.8115" y1="5.6231" x2="6.3731" y2="1.0615" gradientTransform="matrix(1, 0, 0, -1, 0, 8)" gradientUnits="userSpaceOnUse"><stop offset="0" stop-color="#ffe599"/><stop offset="1" stop-color="#ffc938"/></linearGradient><linearGradient id="Gradiente_sem_nome_13" x1="3.1161" y1="3.7444" x2="4.8839" y2="5.5122" gradientUnits="userSpaceOnUse"><stop offset="0" stop-color="#c68d00"/><stop offset="1" stop-color="#a67100"/></linearGradient></defs><path class="cls-1" d="M6.2941,2H4l-.7618-.7618A.8134.8134,0,0,0,2.6631,1H1.3765A.3765.3765,0,0,0,1,1.3765V3.918A.082.082,0,0,0,1.082,4H6.918A.082.082,0,0,0,7,3.918V2.7059A.7058.7058,0,0,0,6.2943,2Z"/><path class="cls-2" d="M1,6H7v.68A.32.32,0,0,1,6.68,7H1.32A.32.32,0,0,1,1,6.68H1V6Z"/><path class="cls-3" d="M6.455,2.5H4.7038a.864.864,0,0,0-.3861.0911l-.7126.3564A.4983.4983,0,0,1,3.3825,3H1.3215A.3217.3217,0,0,0,1,3.3215V6.1784A.3216.3216,0,0,0,1.3216,6.5H6.6785A.3217.3217,0,0,0,7,6.1785V3.045A.545.545,0,0,0,6.455,2.5Z"/><path class="cls-4" d="M4,3.3783a1.25,1.25,0,1,0,1.25,1.25A1.25,1.25,0,0,0,4,3.3783Zm.7983,1.7285a.1647.1647,0,0,1-.0586-.011l-.7983-.3222a.1575.1575,0,0,1-.0958-.12l-.1367-.8234a.1562.1562,0,1,1,.3082-.0513L4.14,4.516l.7165.2893a.1581.1581,0,0,1,.0867.2039A.1557.1557,0,0,1,4.7983,5.1068Z"/></svg>