<svg id="Camada_1" data-name="Camada 1" xmlns="http://www.w3.org/2000/svg" xmlns:xlink="http://www.w3.org/1999/xlink" viewBox="0 0 32 32"><defs><style>.cls-1{fill:url(#Gradiente_sem_nome_38);}.cls-2{fill:#fff;}</style><linearGradient id="Gradiente_sem_nome_38" x1="6.083" y1="6.1005" x2="25.882" y2="25.8995" gradientUnits="userSpaceOnUse"><stop offset="0" stop-color="#984fff"/><stop offset="1" stop-color="#932ba1"/></linearGradient></defs><circle class="cls-1" cx="15.9825" cy="16" r="14"/><path class="cls-2" d="M15.9825,6.0866a2.5,2.5,0,1,0,0,5h0a2.5,2.5,0,1,0,0-5Zm8.344,4.518A2.01,2.01,0,0,0,21.789,9.3235q-.0375.0123-.0745.0261l-1.607.6a.75.75,0,0,0-.416.381,4.086,4.086,0,0,1-7.386.01.75.75,0,0,0-.415-.38l-1.628-.608a2.007,2.007,0,0,0-1.464,3.736l3.184,1.31v3.148l-1.972,5.713a1.9564,1.9564,0,1,0,3.683,1.321l1.846-4.958a.48.48,0,0,1,.9-.002l1.882,5.009a1.9408,1.9408,0,1,0,3.652-1.315h0l-1.991-5.78v-3.134l3.195-1.307A2.01,2.01,0,0,0,24.3265,10.6046Z"/></svg>