<svg id="Camada_1" data-name="Camada 1" xmlns="http://www.w3.org/2000/svg" xmlns:xlink="http://www.w3.org/1999/xlink" viewBox="0 0 8 8"><defs><style>.cls-1{fill:url(#Gradiente_sem_nome_3);}.cls-2{fill:#0c575f;}.cls-3{fill:url(#Gradiente_sem_nome_5);}.cls-4{fill:#fff;}</style><linearGradient id="Gradiente_sem_nome_3" x1="1" y1="2.5" x2="7" y2="2.5" gradientUnits="userSpaceOnUse"><stop offset="0" stop-color="#05805c"/><stop offset="1" stop-color="#08705d"/></linearGradient><linearGradient id="Gradiente_sem_nome_5" x1="1.8115" y1="5.6231" x2="6.3731" y2="1.0615" gradientTransform="matrix(1, 0, 0, -1, 0, 8)" gradientUnits="userSpaceOnUse"><stop offset="0" stop-color="#38c494"/><stop offset="1" stop-color="#0099a6"/></linearGradient></defs><path class="cls-1" d="M6.2941,2H4l-.7618-.7618A.8134.8134,0,0,0,2.6631,1H1.3765A.3765.3765,0,0,0,1,1.3765V3.918A.082.082,0,0,0,1.082,4H6.918A.082.082,0,0,0,7,3.918V2.7059A.7058.7058,0,0,0,6.2943,2Z"/><path class="cls-2" d="M1,6H7v.68A.32.32,0,0,1,6.68,7H1.32A.32.32,0,0,1,1,6.68H1V6Z"/><path class="cls-3" d="M6.455,2.5H4.7038a.864.864,0,0,0-.3861.0911l-.7126.3564A.4983.4983,0,0,1,3.3825,3H1.3215A.3217.3217,0,0,0,1,3.3215V6.1784A.3216.3216,0,0,0,1.3216,6.5H6.6785A.3217.3217,0,0,0,7,6.1785V3.045A.545.545,0,0,0,6.455,2.5Z"/><path class="cls-4" d="M4.9555,5H4.5V3.57a.32.32,0,0,0-.32-.32H3.82a.32.32,0,0,0-.32.32V5H3.0445a.1472.1472,0,0,0-.1041.2514l.9555.9554a.147.147,0,0,0,.2082,0L5.06,5.2514A.1472.1472,0,0,0,4.9555,5Z"/></svg>