<svg id="Camada_1" data-name="Camada 1" xmlns="http://www.w3.org/2000/svg" xmlns:xlink="http://www.w3.org/1999/xlink" viewBox="0 0 8 8"><defs><style>.cls-1{fill:url(#Gradiente_sem_nome_2);}.cls-2{fill:url(#Gradiente_sem_nome_8);}.cls-3{fill:url(#Gradiente_sem_nome_3);}.cls-4{fill:url(#Gradiente_sem_nome_4);}</style><linearGradient id="Gradiente_sem_nome_2" x1="1.8787" y1="1.8787" x2="6.1213" y2="6.1213" gradientUnits="userSpaceOnUse"><stop offset="0" stop-color="#232223"/><stop offset="1" stop-color="#49484d"/></linearGradient><linearGradient id="Gradiente_sem_nome_8" x1="1.8787" y1="6.1213" x2="6.1213" y2="1.8787" gradientTransform="matrix(-1, 0, 0, 1, 8, 0)" gradientUnits="userSpaceOnUse"><stop offset="0" stop-color="#f7904e"/><stop offset="1" stop-color="#8f62bc"/></linearGradient><linearGradient id="Gradiente_sem_nome_3" x1="-77.9317" y1="51.3845" x2="-78.7719" y2="52.2957" gradientTransform="matrix(1.4087, 0, 0, -1.4087, 114.3799, 77.0329)" gradientUnits="userSpaceOnUse"><stop offset="0" stop-color="#d2d2d2"/><stop offset="1" stop-color="#fff"/></linearGradient><linearGradient id="Gradiente_sem_nome_4" x1="-112.4256" y1="85.6875" x2="-113.0336" y2="86.7405" gradientTransform="matrix(0.5389, 0, 0, -0.5389, 64.7516, 50.4643)" xlink:href="#Gradiente_sem_nome_2"/></defs><circle class="cls-1" cx="4" cy="4" r="3"/><path class="cls-2" d="M1,4A3,3,0,1,0,4,1,3,3,0,0,0,1,4Zm.5,0a2.5284,2.5284,0,1,1,.9259,1.9276L3.6768,4.6768a.25.25,0,0,0-.3536-.3536L2.0724,5.5741A2.4764,2.4764,0,0,1,1.5,4Z"/><path class="cls-3" d="M5,4a.9824.9824,0,0,1-.1634.55.69.69,0,0,1-.0588.0783.9965.9965,0,0,1-1.3229.2089A.9714.9714,0,0,1,3.22,4.6251a.7616.7616,0,0,1-.0571-.08A.9994.9994,0,1,1,5,4Z"/><path class="cls-4" d="M4.375,4a.3741.3741,0,0,1-.0625.2071.299.299,0,0,1-.0215.0293.3681.3681,0,0,1-.086.0781.38.38,0,0,1-.41,0,.427.427,0,0,1-.0879-.08l-.0215-.0293A.3756.3756,0,1,1,4.375,4Z"/></svg>