<?xml version="1.0" encoding="utf-8"?>
<!-- Generator: Adobe Illustrator 26.0.1, SVG Export Plug-In . SVG Version: 6.00 Build 0)  -->
<svg version="1.1" id="Camada_1" xmlns="http://www.w3.org/2000/svg" xmlns:xlink="http://www.w3.org/1999/xlink" x="0px" y="0px"
	 viewBox="0 0 8 8" style="enable-background:new 0 0 8 8;" xml:space="preserve">
<style type="text/css">
	.st0{fill:url(#SVGID_1_);}
	.st1{fill:url(#SVGID_00000061464751774247729500000016351102771817748872_);}
	.st2{fill:url(#SVGID_00000028287710233091323140000016971276246621548685_);}
</style>
<linearGradient id="SVGID_1_" gradientUnits="userSpaceOnUse" x1="1.8065" y1="6.1946" x2="6.1948" y2="1.8063" gradientTransform="matrix(1 0 0 -1 0 8)">
	<stop  offset="0.1453" style="stop-color:#9DA5AD"/>
	<stop  offset="0.8939" style="stop-color:#5A6670"/>
</linearGradient>
<path class="st0" d="M6.3,4.3c0-0.1,0-0.2,0-0.3c0-0.1,0-0.2,0-0.3l0.7-0.5C7,3.2,7,3.1,7,3L6.4,2c0-0.1-0.1-0.1-0.2-0.1L5.4,2.2
	C5.2,2.1,5.1,2,4.9,1.9L4.8,1.1C4.8,1.1,4.7,1,4.6,1H3.4C3.3,1,3.2,1.1,3.2,1.1L3.1,1.9C2.9,2,2.8,2.1,2.6,2.2L1.8,1.9
	c-0.1,0-0.2,0-0.2,0.1L1,3c0,0.1,0,0.1,0,0.2l0.7,0.5c0,0.1,0,0.2,0,0.3c0,0.1,0,0.2,0,0.3L1.1,4.8C1,4.8,1,4.9,1,5l0.6,1
	c0,0.1,0.1,0.1,0.2,0.1l0.8-0.3C2.8,5.9,2.9,6,3.1,6.1l0.1,0.8C3.2,6.9,3.3,7,3.4,7h1.2c0.1,0,0.1-0.1,0.2-0.1l0.1-0.8
	C5.1,6,5.2,5.9,5.4,5.8l0.8,0.3c0.1,0,0.1,0,0.2-0.1L7,5c0-0.1,0-0.1,0-0.2L6.3,4.3z"/>
<linearGradient id="SVGID_00000023994870924758344470000005320316032062463878_" gradientUnits="userSpaceOnUse" x1="2.9393" y1="2.9393" x2="5.0607" y2="5.0607">
	<stop  offset="0" style="stop-color:#FFFFFF"/>
	<stop  offset="0.242" style="stop-color:#F2F2F2"/>
	<stop  offset="1" style="stop-color:#CCCCCC"/>
</linearGradient>
<path style="fill:url(#SVGID_00000023994870924758344470000005320316032062463878_);" d="M4,5.5L4,5.5C3.2,5.5,2.5,4.8,2.5,4v0
	c0-0.8,0.7-1.5,1.5-1.5h0c0.8,0,1.5,0.7,1.5,1.5v0C5.5,4.8,4.8,5.5,4,5.5z"/>
<linearGradient id="SVGID_00000079480994588451632650000000027287209803393164_" gradientUnits="userSpaceOnUse" x1="3.2929" y1="3.2929" x2="4.7071" y2="4.7071">
	<stop  offset="0.23" style="stop-color:#0669BC"/>
	<stop  offset="0.8" style="stop-color:#104E91"/>
</linearGradient>
<circle style="fill:url(#SVGID_00000079480994588451632650000000027287209803393164_);" cx="4" cy="4" r="1"/>
</svg>
