<svg id="Camada_1" data-name="Camada 1" xmlns="http://www.w3.org/2000/svg" xmlns:xlink="http://www.w3.org/1999/xlink" viewBox="0 0 8 8"><defs><style>.cls-1{fill:url(#Gradiente_sem_nome_2);}.cls-2{fill:url(#Gradiente_sem_nome_8);}.cls-3{fill:url(#Gradiente_sem_nome_3);}.cls-4{fill:url(#Gradiente_sem_nome_4);}</style><linearGradient id="Gradiente_sem_nome_2" x1="1.5251" y1="1.5251" x2="6.4749" y2="6.4749" gradientUnits="userSpaceOnUse"><stop offset="0" stop-color="#232223"/><stop offset="1" stop-color="#49484d"/></linearGradient><linearGradient id="Gradiente_sem_nome_8" x1="1.5251" y1="6.4749" x2="6.4749" y2="1.5251" gradientTransform="matrix(-1, 0, 0, 1, 8, 0)" gradientUnits="userSpaceOnUse"><stop offset="0" stop-color="#f7904e"/><stop offset="1" stop-color="#8f62bc"/></linearGradient><linearGradient id="Gradiente_sem_nome_3" x1="-77.861" y1="51.3079" x2="-78.8412" y2="52.371" gradientTransform="matrix(1.4087, 0, 0, -1.4087, 114.3799, 77.0329)" gradientUnits="userSpaceOnUse"><stop offset="0" stop-color="#d2d2d2"/><stop offset="1" stop-color="#fff"/></linearGradient><linearGradient id="Gradiente_sem_nome_4" x1="-112.3745" y1="85.5986" x2="-113.0837" y2="86.8271" gradientTransform="matrix(0.5389, 0, 0, -0.5389, 64.7516, 50.4643)" xlink:href="#Gradiente_sem_nome_2"/></defs><circle class="cls-1" cx="4" cy="4" r="3.5"/><path class="cls-2" d="M.5,4A3.5,3.5,0,1,0,4,.5,3.5,3.5,0,0,0,.5,4Zm.5833,0a2.95,2.95,0,1,1,1.08,2.2489L3.6229,4.79A.2917.2917,0,0,0,3.21,4.3771L1.7511,5.8364A2.8889,2.8889,0,0,1,1.0833,4Z"/><path class="cls-3" d="M5.1666,4a1.1465,1.1465,0,0,1-.1905.6417.818.818,0,0,1-.0686.0913,1.1627,1.1627,0,0,1-1.5434.2438A1.1331,1.1331,0,0,1,3.09,4.7292.9009.9009,0,0,1,3.023,4.636,1.166,1.166,0,1,1,5.1666,4Z"/><path class="cls-4" d="M4.4375,4a.4353.4353,0,0,1-.073.2416.3223.3223,0,0,1-.025.0342.43.43,0,0,1-.1.0912.4437.4437,0,0,1-.4788,0,.499.499,0,0,1-.1026-.0934c-.0091-.0114-.016-.0228-.0251-.0342A.4383.4383,0,1,1,4.4375,4Z"/></svg>