<svg xmlns="http://www.w3.org/2000/svg" xmlns:xlink="http://www.w3.org/1999/xlink" viewBox="0 0 8 8"><defs><style>.cls-1{fill:none;}.cls-2{fill:url(#Gradiente_sem_nome_6);}.cls-3{clip-path:url(#clip-path);}.cls-4{fill:url(#Gradiente_sem_nome_5);}.cls-5{fill:url(#Gradiente_sem_nome_113);}.cls-6{fill:url(#Gradiente_sem_nome_161);}.cls-7{fill:url(#Gradiente_sem_nome_354);}.cls-8{fill:url(#Gradiente_sem_nome_201);}</style><linearGradient id="Gradiente_sem_nome_6" x1="3.092" y1="0.6774" x2="4.908" y2="3.8226" gradientUnits="userSpaceOnUse"><stop offset="0" stop-color="#3bc4ff"/><stop offset="1" stop-color="#0e5fc2"/></linearGradient><clipPath id="clip-path"><path class="cls-1" d="M1.66,2H6.34A.66.66,0,0,1,7,2.66V5.5544A1.4456,1.4456,0,0,1,5.5544,7H2.4456A1.4456,1.4456,0,0,1,1,5.5544V2.66A.66.66,0,0,1,1.66,2Z"/></clipPath><linearGradient id="Gradiente_sem_nome_5" x1="1" y1="1" x2="7" y2="7" gradientUnits="userSpaceOnUse"><stop offset="0" stop-color="#0874cf"/><stop offset="1" stop-color="#243a5f"/></linearGradient><linearGradient id="Gradiente_sem_nome_113" x1="2.7861" y1="3.2861" x2="3.5639" y2="4.0639" gradientUnits="userSpaceOnUse"><stop offset="0" stop-color="#58d7f7"/><stop offset="1" stop-color="#38cff5"/></linearGradient><linearGradient id="Gradiente_sem_nome_161" x1="4.4361" y1="3.2861" x2="5.2139" y2="4.0639" gradientUnits="userSpaceOnUse"><stop offset="0" stop-color="#f36636"/><stop offset="1" stop-color="#f1511b"/></linearGradient><linearGradient id="Gradiente_sem_nome_354" x1="2.7861" y1="4.9361" x2="3.5639" y2="5.7139" gradientUnits="userSpaceOnUse"><stop offset="0" stop-color="#b1e675"/><stop offset="1" stop-color="#97de47"/></linearGradient><linearGradient id="Gradiente_sem_nome_201" x1="4.4361" y1="4.9361" x2="5.2139" y2="5.7139" gradientUnits="userSpaceOnUse"><stop offset="0" stop-color="#ffd24a"/><stop offset="1" stop-color="#ffc414"/></linearGradient></defs><g id="Camada_1" data-name="Camada 1"><path class="cls-2" d="M4,1.2016A1.195,1.195,0,0,1,5.2984,2.25,1.195,1.195,0,0,1,4,3.2984,1.195,1.195,0,0,1,2.7016,2.25,1.195,1.195,0,0,1,4,1.2016M4,.5A1.8875,1.8875,0,0,0,2,2.25,1.8875,1.8875,0,0,0,4,4,1.8875,1.8875,0,0,0,6,2.25,1.8875,1.8875,0,0,0,4,.5Z"/><g class="cls-3"><rect class="cls-4" x="1" y="1" width="6" height="6"/></g></g><g id="Camada_2" data-name="Camada 2"><circle class="cls-5" cx="3.175" cy="3.675" r="0.55"/><circle class="cls-6" cx="4.825" cy="3.675" r="0.55"/><circle class="cls-7" cx="3.175" cy="5.325" r="0.55"/><circle class="cls-8" cx="4.825" cy="5.325" r="0.55"/></g></svg>