<svg id="Camada_1" data-name="Camada 1" xmlns="http://www.w3.org/2000/svg" xmlns:xlink="http://www.w3.org/1999/xlink" viewBox="0 0 8 8"><defs><style>.cls-1{fill:none;}.cls-2{clip-path:url(#clip-path);}.cls-3{fill:url(#Gradiente_sem_nome_5);}.cls-4{fill:#fff;}</style><clipPath id="clip-path"><path class="cls-1" d="M1.7,2H6.3a.7.7,0,0,1,.7.7V5.6338A1.3662,1.3662,0,0,1,5.6338,7H2.3662A1.3662,1.3662,0,0,1,1,5.6338V2.7A.7.7,0,0,1,1.7,2Z"/></clipPath><linearGradient id="Gradiente_sem_nome_5" x1="1" y1="1" x2="7" y2="7" gradientUnits="userSpaceOnUse"><stop offset="0" stop-color="#0874cf"/><stop offset="1" stop-color="#243a5f"/></linearGradient></defs><g class="cls-2"><rect class="cls-3" x="1" y="1" width="6" height="6"/></g><ellipse class="cls-1" cx="4" cy="2.25" rx="2" ry="1.75"/><path class="cls-4" d="M4,4.0972A1.5781,1.5781,0,0,1,2.3086,2.67a.25.25,0,0,1,.5,0A1.086,1.086,0,0,0,4,3.5972,1.086,1.086,0,0,0,5.1914,2.67a.25.25,0,0,1,.5,0A1.5781,1.5781,0,0,1,4,4.0972Z"/></svg>