<svg height="8px" width="8px" id="Camada_1" data-name="Camada 1" xmlns="http://www.w3.org/2000/svg" xmlns:xlink="http://www.w3.org/1999/xlink" viewBox="0 0 8 8"><defs><style>.cls-1{fill:url(#Gradiente_sem_nome);}.cls-2{fill:url(#Gradiente_sem_nome_6);}.cls-3{fill:url(#Gradiente_sem_nome_5);}.cls-4{fill:url(#Gradiente_sem_nome_6-2);}</style><linearGradient id="Gradiente_sem_nome" x1="1.417" y1="1.917" x2="6.583" y2="7.083" gradientUnits="userSpaceOnUse"><stop offset="0" stop-color="#505050"/><stop offset="1" stop-color="#323232"/></linearGradient><linearGradient id="Gradiente_sem_nome_6" x1="4.3142" y1="4.8142" x2="5.6858" y2="6.1858" gradientUnits="userSpaceOnUse"><stop offset="0" stop-color="#e5e5e5"/><stop offset="1" stop-color="#cecece"/></linearGradient><linearGradient id="Gradiente_sem_nome_5" x1="3.5973" y1="4.3673" x2="2.7214" y2="5.2432" gradientTransform="matrix(-1, 0, 0, 1, 6, 0)" gradientUnits="userSpaceOnUse"><stop offset="0" stop-color="#a9a9a9"/><stop offset="1" stop-color="#8c8c8c"/></linearGradient><linearGradient id="Gradiente_sem_nome_6-2" x1="2.1449" y1="2.9722" x2="3.7924" y2="4.6197" xlink:href="#Gradiente_sem_nome_6"/></defs><rect class="cls-1" x="1" y="2" width="6" height="5" rx="0.5702"/><rect class="cls-2" x="4" y="5" width="2" height="1" rx="0.2193"/><path class="cls-3" d="M2.2156,5.5714,3.92,4.7193A.1452.1452,0,0,0,4,4.59l-.5-.66-1.42.71a.1452.1452,0,0,0-.08.13v.6693A.149.149,0,0,0,2.2156,5.5714Z"/><path class="cls-4" d="M3.79,4.7222,2.08,3.8674a.1454.1454,0,0,1-.08-.13V3.0621a.1452.1452,0,0,1,.21-.13l1.71.8548a.1454.1454,0,0,1,.08.13v.6754A.1452.1452,0,0,1,3.79,4.7222Z"/></svg>