<svg id="Camada_1" data-name="Camada 1" xmlns="http://www.w3.org/2000/svg" xmlns:xlink="http://www.w3.org/1999/xlink" viewBox="0 0 8 8"><defs><style>.cls-1{fill:url(#Gradiente_sem_nome_8);}.cls-2{fill:url(#Gradiente_sem_nome_2);}.cls-3{fill:#fff;}</style><linearGradient id="Gradiente_sem_nome_8" x1="7.5" y1="4" x2="0.5" y2="4" gradientUnits="userSpaceOnUse"><stop offset="0" stop-color="#f7904e"/><stop offset="1" stop-color="#8f62bc"/></linearGradient><linearGradient id="Gradiente_sem_nome_2" x1="1.8787" y1="1.8787" x2="6.1213" y2="6.1213" gradientUnits="userSpaceOnUse"><stop offset="0" stop-color="#232223"/><stop offset="1" stop-color="#49484d"/></linearGradient></defs><circle class="cls-1" cx="4" cy="4" r="3.5"/><circle class="cls-2" cx="4" cy="4" r="3"/><circle class="cls-3" cx="2.875" cy="5.59" r="0.625"/><circle class="cls-3" cx="4.875" cy="5.21" r="0.625"/><rect class="cls-3" x="5" y="2.5" width="0.5" height="2.71"/><polygon class="cls-3" points="3 3.015 3.5 2.5 3.5 5.59 3 5.59 3 3.015"/><path class="cls-3" d="M3.2451,2.451A.3184.3184,0,0,0,3,2.75V3a.1974.1974,0,0,0,.2451.201l2.01-.402A.3184.3184,0,0,0,5.5,2.5V2.25a.1974.1974,0,0,0-.2451-.201Z"/></svg>