<svg id="Camada_1" data-name="Camada 1" xmlns="http://www.w3.org/2000/svg" xmlns:xlink="http://www.w3.org/1999/xlink" viewBox="0 0 8 8"><defs><style>.cls-1{fill:url(#Gradiente_sem_nome);}.cls-2{fill:url(#Gradiente_sem_nome_2);}.cls-3{fill:url(#Gradiente_sem_nome_3);}</style><linearGradient id="Gradiente_sem_nome" x1="1.4403" y1="1.4403" x2="6.56" y2="6.56" gradientUnits="userSpaceOnUse"><stop offset="0.1453" stop-color="#9da5ad"/><stop offset="0.8939" stop-color="#5a6670"/></linearGradient><linearGradient id="Gradiente_sem_nome_2" x1="2.7625" y1="5.2375" x2="5.2375" y2="2.7625" gradientTransform="matrix(1, 0, 0, -1, 0, 8)" gradientUnits="userSpaceOnUse"><stop offset="0" stop-color="#fff"/><stop offset="0.242" stop-color="#f2f2f2"/><stop offset="1" stop-color="#ccc"/></linearGradient><linearGradient id="Gradiente_sem_nome_3" x1="3.175" y1="4.825" x2="4.825" y2="3.175" gradientTransform="matrix(1, 0, 0, -1, 0, 8)" gradientUnits="userSpaceOnUse"><stop offset="0.23" stop-color="#0669bc"/><stop offset="0.8" stop-color="#104e91"/></linearGradient></defs><path class="cls-1" d="M6.6833,4.35v-.7L7.5,3.0667V2.8333L6.8,1.6667c0-.1167-.1167-.1167-.2333-.1167l-.9334.35c-.2333-.1167-.35-.2333-.5833-.35L4.9333.6167A.407.407,0,0,0,4.7.5H3.3a.407.407,0,0,0-.2333.1167L2.95,1.55c-.2333.1167-.35.2333-.5833.35l-.9334-.35c-.1166,0-.2333,0-.2333.1167L.5,2.8333v.2334l.8167.5833v.7l-.7.5833C.5,4.9333.5,5.05.5,5.1667l.7,1.1666c0,.1167.1167.1167.2333.1167l.9334-.35c.2333.1167.35.2333.5833.35l.1167.9333A.407.407,0,0,0,3.3,7.5H4.7c.1167,0,.1167-.1167.2333-.1167L5.05,6.45c.2333-.1167.35-.2333.5833-.35l.9334.35c.1166,0,.1166,0,.2333-.1167l.7-1.1666V4.9333Z"/><path class="cls-2" d="M4,5.75H4A1.7943,1.7943,0,0,1,2.25,4h0A1.7943,1.7943,0,0,1,4,2.25H4A1.7943,1.7943,0,0,1,5.75,4h0A1.7943,1.7943,0,0,1,4,5.75Z"/><circle class="cls-3" cx="4" cy="4" r="1.1667"/></svg>