<svg id="Camada_1" data-name="Camada 1" xmlns="http://www.w3.org/2000/svg" xmlns:xlink="http://www.w3.org/1999/xlink" viewBox="0 0 8 8"><defs><style>.cls-1{fill:none;}.cls-2{clip-path:url(#clip-path);}.cls-3{fill:url(#Gradiente_sem_nome_61);}.cls-4{fill:url(#Gradiente_sem_nome_2);}</style><clipPath id="clip-path"><path class="cls-1" d="M3.5679.85a.4817.4817,0,0,1,.8642,0L5.274,2.5558l1.8824.2734a.4821.4821,0,0,1,.2671.8222L6.0611,4.98l.3217,1.8742a.4821.4821,0,0,1-.6994.5084L4,6.4767l-1.6832.8854a.4825.4825,0,0,1-.7-.5084L1.9385,4.98.5765,3.6514a.4822.4822,0,0,1,.2671-.8222L2.726,2.5558Z"/></clipPath><linearGradient id="Gradiente_sem_nome_61" x1="-0.75" y1="0.75" x2="5.75" y2="7.25" gradientUnits="userSpaceOnUse"><stop offset="0" stop-color="#ffeb85"/><stop offset="1" stop-color="#ffb433"/></linearGradient><linearGradient id="Gradiente_sem_nome_2" x1="3" y1="1" x2="9" y2="7" gradientUnits="userSpaceOnUse"><stop offset="0" stop-color="#3d3820"/><stop offset="1" stop-color="#3d2b0c"/></linearGradient></defs><g class="cls-2"><rect class="cls-3" width="5" height="8"/><rect class="cls-4" x="4" width="4" height="8"/></g></svg>