<svg id="Camada_1" data-name="Camada 1" xmlns="http://www.w3.org/2000/svg" xmlns:xlink="http://www.w3.org/1999/xlink" viewBox="0 0 8 8"><defs><style>.cls-1{fill:url(#Gradiente_sem_nome_147);}.cls-2{fill:url(#Gradiente_sem_nome_109);}</style><linearGradient id="Gradiente_sem_nome_147" x1="1.602" y1="1.0589" x2="6.4104" y2="5.8673" gradientUnits="userSpaceOnUse"><stop offset="0" stop-color="#1fc487"/><stop offset="1" stop-color="#006c8d"/></linearGradient><linearGradient id="Gradiente_sem_nome_109" x1="1.8849" y1="1.406" x2="6.1259" y2="5.647" gradientUnits="userSpaceOnUse"><stop offset="0" stop-color="#22d492"/><stop offset="1" stop-color="#00799e"/></linearGradient></defs><path class="cls-1" d="M4.0063.42a.4534.4534,0,0,1,.1885.041L6.8427,1.5845a.8673.8673,0,0,1,.5386.7919,5.6577,5.6577,0,0,1-3.0037,5.12.8687.8687,0,0,1-.7425,0,5.6957,5.6957,0,0,1-3.0164-5.12A.9015.9015,0,0,1,1.17,1.5845L3.8193.4612A.4462.4462,0,0,1,4.0063.42Z"/><path class="cls-2" d="M4.0056.8426a.4.4,0,0,1,.1662.0362L6.5073,1.87a.7651.7651,0,0,1,.475.6985A4.99,4.99,0,0,1,4.333,7.0839a.7662.7662,0,0,1-.6549,0,5.0235,5.0235,0,0,1-2.66-4.5159A.7952.7952,0,0,1,1.5039,1.87L3.8406.8788a.3947.3947,0,0,1,.165-.0362Z"/></svg>