<svg id="Camada_1" data-name="Camada 1" xmlns="http://www.w3.org/2000/svg" xmlns:xlink="http://www.w3.org/1999/xlink" viewBox="0 0 8 8"><defs><style>.cls-1{fill:url(#Gradiente_sem_nome_8);}.cls-2{fill:url(#Gradiente_sem_nome_2);}.cls-3{fill:#fff;}</style><linearGradient id="Gradiente_sem_nome_8" x1="7.5" y1="4" x2="0.5" y2="4" gradientUnits="userSpaceOnUse"><stop offset="0" stop-color="#f7904e"/><stop offset="1" stop-color="#8f62bc"/></linearGradient><linearGradient id="Gradiente_sem_nome_2" x1="1.8787" y1="1.8787" x2="6.1213" y2="6.1213" gradientUnits="userSpaceOnUse"><stop offset="0" stop-color="#232223"/><stop offset="1" stop-color="#49484d"/></linearGradient></defs><circle class="cls-1" cx="4" cy="4" r="3.5"/><circle class="cls-2" cx="4" cy="4" r="3"/><path class="cls-3" d="M5.3261,1.8366c.1137.0023.14.0717.14.2285l.0017,2.7873a1.4451,1.4451,0,0,1-.058.5034.668.668,0,0,1-.613.3645A.4826.4826,0,0,1,4.2354,5.25c-.004-.2887.125-.5065.78-.6041.1852-.03.201-.1033.2085-.2643L5.2217,3.02c-.0015-.1108-.0476-.1444-.1459-.1246l-.6042.122-.1323.0268-.8852.1784c-.1691.035-.1474.106-.1479.2335l.0024,1.8221a1.1752,1.1752,0,0,1-.0545.5087.6867.6867,0,0,1-.62.3737.49.49,0,0,1-.5581-.4853c-.004-.2886.1232-.4915.7787-.5891.1852-.03.2027-.118.21-.279L3.0621,2.5163c-.0039-.1467.0283-.24.1947-.2751l.9054-.1786.0224-.0046.9964-.2022a.6292.6292,0,0,1,.1451-.0193Z"/></svg>