<svg id="Camada_1" data-name="Camada 1" xmlns="http://www.w3.org/2000/svg" xmlns:xlink="http://www.w3.org/1999/xlink" viewBox="0 0 16 16"><defs><style>.cls-1{fill:url(#Gradiente_sem_nome_3);}.cls-2{fill:#fff;}</style><linearGradient id="Gradiente_sem_nome_3" x1="3.0503" y1="14.2253" x2="12.9497" y2="4.3258" gradientTransform="matrix(1, 0, 0, -1, 0, 17.2756)" gradientUnits="userSpaceOnUse"><stop offset="0" stop-color="#1caeff"/><stop offset="1" stop-color="#0065b0"/></linearGradient></defs><circle class="cls-1" cx="8" cy="8" r="7"/><path class="cls-2" d="M11.7169,8.4961a3.7232,3.7232,0,0,0,0-.9922l.8457-.7695a.4435.4435,0,0,0,.1231-.4805,4.966,4.966,0,0,0-.3067-.67l-.0918-.1582a5.0535,5.0535,0,0,0-.4316-.61.4445.4445,0,0,0-.4785-.133l-1.0879.3469A4.1665,4.1665,0,0,0,9.43,4.5319L9.1857,3.4165A.4431.4431,0,0,0,8.83,3.0686a5.0566,5.0566,0,0,0-1.66,0,.4428.4428,0,0,0-.3554.3479L6.57,4.5319a3.7545,3.7545,0,0,0-.8594.4974L4.624,4.6824a.4436.4436,0,0,0-.4787.133,5.0573,5.0573,0,0,0-.4321.61l-.0911.1582a4.8769,4.8769,0,0,0-.3083.67.4429.4429,0,0,0,.1241.4805l.8448.7695a3.7911,3.7911,0,0,0,0,.9922l-.8448.7695a.4438.4438,0,0,0-.1241.4805,4.8533,4.8533,0,0,0,.3083.67l.0913.1582a5.1151,5.1151,0,0,0,.4319.6113.446.446,0,0,0,.4787.1329l1.087-.3477a3.8433,3.8433,0,0,0,.8594.4981l.2442,1.1152a.4678.4678,0,0,0,.3554.3476A4.9875,4.9875,0,0,0,7.9825,13a5.0952,5.0952,0,0,0,.8477-.0684.4681.4681,0,0,0,.3555-.3476L9.43,11.4688a4.2767,4.2767,0,0,0,.8594-.4981l1.0879.3477a.4469.4469,0,0,0,.4785-.1329,5.1356,5.1356,0,0,0,.4316-.6113l.0918-.1582a4.966,4.966,0,0,0,.3067-.67.4435.4435,0,0,0-.1231-.4805ZM8,10.4305A2.492,2.492,0,0,1,5.5694,8,2.492,2.492,0,0,1,8,5.57,2.492,2.492,0,0,1,10.4305,8,2.492,2.492,0,0,1,8,10.4305Z"/><circle class="cls-2" cx="8" cy="8" r="1.6204"/></svg>