<svg id="Camada_1" data-name="Camada 1" xmlns="http://www.w3.org/2000/svg" xmlns:xlink="http://www.w3.org/1999/xlink" viewBox="0 0 8 8"><defs><style>.cls-1{fill:none;}.cls-2{fill:url(#Gradiente_sem_nome_2);}.cls-3{clip-path:url(#clip-path);}.cls-4{fill:#141917;}.cls-5{clip-path:url(#clip-path-2);}.cls-6{fill:#65fd9a;}</style><linearGradient id="Gradiente_sem_nome_2" x1="1.2373" y1="1.2373" x2="6.7627" y2="6.7627" gradientUnits="userSpaceOnUse"><stop offset="0" stop-color="#d4d4d4"/><stop offset="1" stop-color="#8b9194"/></linearGradient><clipPath id="clip-path"><rect class="cls-1" x="1.435" y="1.435" width="5.13" height="5.13" rx="0.5253"/></clipPath><clipPath id="clip-path-2"><rect class="cls-1" x="1.3" y="2.5" width="5.4" height="3"/></clipPath></defs><rect class="cls-2" x="1" y="1" width="6" height="6" rx="0.8102"/><g class="cls-3"><rect class="cls-4" width="8" height="8"/><g class="cls-5"><path class="cls-6" d="M4.4941,5.0029a.189.189,0,0,1-.0332-.0039.15.15,0,0,1-.1049-.0879L3.7832,3.5688l-.5576.8472A.1509.1509,0,0,1,3.1,4.4834H1.3a.15.15,0,0,1,0-.3H3.019L3.686,3.17a.1488.1488,0,0,1,.1387-.0669.1507.1507,0,0,1,.125.09l.6011,1.4087.4321-.3813a.1485.1485,0,0,1,.0991-.0376H6.7a.15.15,0,1,1,0,.3H5.1387l-.5454.4814A.15.15,0,0,1,4.4941,5.0029Z"/></g></g></svg>