<svg id="Camada_1" data-name="Camada 1" xmlns="http://www.w3.org/2000/svg" xmlns:xlink="http://www.w3.org/1999/xlink" viewBox="0 0 8 8"><defs><style>.cls-1{fill:url(#Gradiente_sem_nome);}.cls-2{fill:url(#Gradiente_sem_nome_2);}.cls-3{fill:url(#Gradiente_sem_nome_3);}</style><linearGradient id="Gradiente_sem_nome" x1="1.0746" y1="1.0746" x2="6.9257" y2="6.9257" gradientUnits="userSpaceOnUse"><stop offset="0.1453" stop-color="#9da5ad"/><stop offset="0.8939" stop-color="#5a6670"/></linearGradient><linearGradient id="Gradiente_sem_nome_2" x1="2.5857" y1="5.4143" x2="5.4143" y2="2.5857" gradientTransform="matrix(1, 0, 0, -1, 0, 8)" gradientUnits="userSpaceOnUse"><stop offset="0" stop-color="#fff"/><stop offset="0.242" stop-color="#f2f2f2"/><stop offset="1" stop-color="#ccc"/></linearGradient><linearGradient id="Gradiente_sem_nome_3" x1="3.0572" y1="4.9428" x2="4.9428" y2="3.0572" gradientTransform="matrix(1, 0, 0, -1, 0, 8)" gradientUnits="userSpaceOnUse"><stop offset="0.23" stop-color="#0669bc"/><stop offset="0.8" stop-color="#104e91"/></linearGradient></defs><path class="cls-1" d="M7.0667,4.4V3.6L8,2.9333V2.6667L7.2,1.3333C7.2,1.2,7.0667,1.2,6.9333,1.2l-1.0666.4c-.2667-.1333-.4-.2667-.6667-.4L5.0667.1333A.4658.4658,0,0,0,4.8,0H3.2a.4658.4658,0,0,0-.2667.1333L2.8,1.2c-.2667.1333-.4.2667-.6667.4L1.0667,1.2C.9333,1.2.8,1.2.8,1.3333L0,2.6667v.2666L.9333,3.6v.8l-.8.6667C0,5.0667,0,5.2,0,5.3333L.8,6.6667C.8,6.8.9333,6.8,1.0667,6.8l1.0666-.4c.2667.1333.4.2667.6667.4l.1333,1.0667A.4658.4658,0,0,0,3.2,8H4.8c.1333,0,.1333-.1333.2667-.1333L5.2,6.8c.2667-.1333.4-.2667.6667-.4l1.0666.4c.1334,0,.1334,0,.2667-.1333L8,5.3333V5.0667Z"/><path class="cls-2" d="M4,6H4A2.0506,2.0506,0,0,1,2,4H2A2.0506,2.0506,0,0,1,4,2H4A2.0506,2.0506,0,0,1,6,4H6A2.0506,2.0506,0,0,1,4,6Z"/><circle class="cls-3" cx="4" cy="4" r="1.3333"/></svg>